<svg xmlns="http://www.w3.org/2000/svg" id="SVGRoot" version="1.1" viewBox="0 0 400 250"><style>svg { background-color: black; } @keyframes blink { from { fill: var(--color); } to { fill: var(--color-lit); } } .light { --delay: 0s; animation: 1s steps(2, end) var(--delay) infinite blink; } .light:hover { --color: orange; --color-lit: yellow; } .star:hover { --color: hotpink; --color-lit: pink; } .filament { fill:#1a1a1a; } .base { fill:#333333; } .star { --color: #c8ab37; --color-lit: #ffcc00ff; --delay: 0s; animation: 2s ease-in-out var(--delay) infinite alternate blink; fill:#c8ab37; } .cord { fill:#333333; } .-green { --color: #1f6f1f; --color-lit: #00d400ff; fill:#1f6f1f; } .-red { --color: #a50000; --color-lit: #ff2a2aff; fill:#a50000; } .-blue { --color: #00388bff; --color-lit: #2a7fffff; fill:#00388b; } #light-1 { --delay: 0s; } #light-2 { --delay: 0.15s; } #light-3 { --delay: 0.2s; } #light-4 { --delay: 0.4s; } #light-5 { --delay: 0.7s; } #light-6 { --delay: calc(0.7s + 0.15s); } #light-7 { --delay: calc(0.7s + 0.2s); } #light-8 { --delay: calc(0.7s + 0.4s); } #light-9 { --delay: calc(0.7s + 0.7s); } #star-1 { --delay: 0s; } #star-2 { --delay: 2s; } #star-3 { --delay: 3s; }</style><g id="layer1"><path id="light-1" d="M6.474 159.023c-3.473 3.246-.282 11.834 1.533 17.255 3.258 8.783 5.671 18.205 11.575 25.689 3.877 4.864 9.258 9.028 15.618 9.707 5.244.749 11.035-.94 14.35-5.241 3.932-4.998 4.025-12.096 1.702-17.81-1.912-5.135-5.746-9.249-9.753-12.853-6.997-5.783-11.624-9.122-19.376-13.732-4.142-2.083-11.608-6.716-15.649-3.015z" class="light -green"/><path id="filament-1" d="M39.371 186.812c-1.154 1.113-1.298 2.916-.889 4.391.555 2.008 1.575 3.859 2.615 5.636.151.254-.266.395-.355.591-.919.974-1.864 1.964-2.95 2.752-1.583-1.232-3.174-2.66-5.209-3.046-1.412-.31-2.979.156-3.905 1.287-1.338 1.512-1.048 4.163.643 5.299 1.424 1.002 3.34.836 4.868.17 1.247-.52 2.379-1.27 3.497-2.02 1.279 1.365 2.61 2.692 3.565 4.31.61.897 1.07 1.895 1.63 2.824.287.284.935.23 1.008-.231.144-.48-.297-.903-.447-1.328-1.14-2.289-2.764-4.288-4.506-6.143-.458-.294.236-.504.425-.752.925-.766 1.724-1.667 2.57-2.514 1.795 2.317 3.87 4.476 6.363 6.052.381.29.94-.02.95-.485-.03-.55-.68-.748-1.03-1.07-1.553-1.12-2.92-2.454-4.166-3.904a18.753 18.753 0 01-1.304-1.625c1.123-1.446 2.163-2.993 2.831-4.706.587-1.595.634-3.546-.457-4.943-1.032-1.451-3.122-2.02-4.732-1.24-.399.18-.728.47-1.015.695zm.955.828c.932-.911 2.582-.82 3.48.115 1.002.956 1.11 2.488.723 3.748-.506 1.616-1.527 3.017-2.5 4.388a22.847 22.847 0 01-2.133-4.315c-.43-1.153-.65-2.602.162-3.644.096-.12.169-.193.268-.292zm-10.533 11.428c.803-.842 2.099-.936 3.147-.56 1.43.487 2.622 1.492 3.753 2.439.073.125-.213.2-.287.283-1.444.887-2.952 1.95-4.71 1.972-1.144.03-2.33-.735-2.574-1.895-.024-.877.146-1.737.671-2.239z" class="filament"/><path id="base-1" d="M35.426 211.62c2.023 3.485 5.937 7.676 8.823 10.444 1.437 1.27 3.836 1.184 5.858.24 1.883-.812 3.506-2.216 4.966-3.698 2.086-2.118 4.363-4.16 5.913-6.681 1.183-1.884 1.789-4.244.86-5.945-1.204-1.76-2.705-3.277-4.05-4.92-1.45-1.695-3.649-4.68-5.079-6.389-5.668 10.57-5.772 10.57-17.29 16.948z" class="base"/><path id="star-1" d="M345.104 97.53c1.13-.112.687-1.575.803-2.324.296-13.23.37-26.463.625-39.693 9.45 7.24 18.739 14.742 28.198 21.98.68.29 1.774-.883.894-1.362-8.005-6.726-16.384-12.996-24.536-19.541-1.161-.927-2.33-1.844-3.475-2.789 7.804-4.563 15.845-8.715 23.61-13.345.679-.207 1.264-1.262.425-1.651-1.005-.205-1.903.722-2.808 1.039-7.47 4.01-14.831 8.219-22.294 12.242.052-11.832.396-23.664.324-35.495.157-.705-.401-1.846-1.234-1.356-1.051.64-.374 2.072-.59 3.073-.174 11.012-.25 22.025-.526 33.034-7.715-5.764-15.119-11.944-22.884-17.638-.976-.23-1.542 1.352-.52 1.718 7.573 6.053 15.25 11.991 22.858 17.99-10.833 6.303-21.923 12.172-32.793 18.4-.595.67.185 1.947 1.044 1.436 10.81-5.83 21.486-11.923 32.29-17.754-.037 13.498-.425 26.994-.38 40.49-.015.69.078 1.573.97 1.547z" class="star"/><path id="star-2" d="M188.799 246.937c-1.13-.113-.686-1.576-.802-2.325-.297-13.23-.37-26.463-.626-39.693-9.449 7.24-18.739 14.742-28.198 21.98-.68.29-1.774-.883-.894-1.362 8.005-6.726 16.384-12.996 24.537-19.541 1.16-.927 2.329-1.844 3.475-2.789-7.805-4.563-15.846-8.715-23.61-13.345-.68-.207-1.265-1.262-.426-1.651 1.005-.205 1.903.722 2.808 1.038 7.47 4.011 14.831 8.22 22.294 12.243-.052-11.832-.396-23.664-.324-35.495-.157-.705.401-1.846 1.234-1.356 1.051.64.374 2.072.59 3.073.174 11.012.25 22.025.526 33.034 7.715-5.764 15.119-11.944 22.884-17.638.976-.23 1.542 1.352.52 1.718-7.573 6.053-15.25 11.99-22.858 17.99 10.833 6.303 21.923 12.172 32.793 18.4.595.67-.185 1.947-1.044 1.436-10.81-5.83-21.486-11.923-32.29-17.754.037 13.498.425 26.994.38 40.49.015.69-.078 1.573-.97 1.547z" class="star"/><path id="star-3" d="M40.832 73.588c1.13.113.686 1.576.802 2.325.297 13.23.37 26.463.626 39.693 9.449-7.239 18.739-14.741 28.198-21.98.68-.29 1.774.883.894 1.362-8.005 6.726-16.384 12.996-24.537 19.542-1.16.926-2.329 1.843-3.475 2.788 7.805 4.563 15.846 8.716 23.61 13.345.68.207 1.265 1.262.426 1.651-1.006.205-1.903-.722-2.808-1.038-7.47-4.01-14.831-8.22-22.294-12.243.052 11.832.396 23.664.324 35.496.157.704-.401 1.845-1.234 1.355-1.051-.64-.374-2.072-.59-3.073-.174-11.012-.25-22.025-.526-33.034-7.715 5.764-15.119 11.944-22.884 17.638-.977.23-1.542-1.352-.52-1.718 7.573-6.053 15.249-11.99 22.858-17.99-10.834-6.303-21.924-12.172-32.793-18.4-.595-.67.185-1.947 1.044-1.436 10.81 5.83 21.486 11.923 32.29 17.754-.037-13.497-.425-26.994-.38-40.49-.015-.69.078-1.572.969-1.547z" class="star"/><path id="cord" d="M185.71 21.796c-18.393.031-35.857 9.104-48.178 22.464-15.356 15.981-23.981 36.856-30.83 57.588-7.796 22.675-14.254 46.098-26.812 66.738-13.389 23.123-32.328 42.588-53.609 58.552-1.433.53-1.412 3.122.395 2.527 7.035-4.002 13.05-9.644 19.174-14.905 25.38-22.854 44.217-52.678 54.509-85.21 9.223-25.49 15.615-52.811 32.085-74.916 11.9-16.222 30.306-29.046 50.9-29.745 12.615-.568 25.589 2.644 35.673 10.471 10.054 7.668 17.663 19.288 18.995 32.01.538 9.496-.037 19.304-4.18 28.035-6.096 15.167-15.509 29.216-18.509 45.49-2.534 16.062 1.98 33.102 12.612 45.483 11.688 14.554 29.69 23.536 48.196 25.046 10.656.305 21.54.67 31.82-2.668 31.378-8.483 57.673-33.66 67.042-64.844 1.662-6.122 3.961-12.38 3.633-18.793-.392-1.556-2.319-.92-2.38.478-1.498 7.54-2.672 15.228-5.614 22.397-8.778 23.576-27.275 43.316-50.434 53.277-23.756 10.66-53.125 10.809-75.437-3.537-16.673-10.6-28.405-29.968-26.93-50.045-.067-15.035 8.306-28.126 14.24-41.415 6.001-12.763 11.784-26.988 8.565-41.324-2.039-12.24-9.077-23.242-18.747-30.893-10.114-8.262-23.165-12.487-36.178-12.261z" class="cord"/><path id="light-2" d="M158.038 178.025c-2.17 4.23-11.305 3.513-17.016 3.253-9.339-.729-19.061-.468-27.877-4.096-5.74-2.396-11.218-6.43-13.613-12.362-2.157-4.838-2.12-10.87 1.11-15.237 3.729-5.15 10.53-7.184 16.663-6.515 5.461.432 10.468 2.993 15.032 5.86 7.479 5.145 11.958 8.68 18.514 14.873 3.138 3.412 9.64 9.324 7.187 14.224z" class="light -red"/><path id="filament-2" d="M122.3 153.998c-.755 1.415-2.449 2.047-3.98 2.058-2.082.016-4.142-.458-6.136-.971-.285-.076-.308.364-.471.504-.685 1.15-1.379 2.33-1.838 3.59 1.617 1.186 3.428 2.324 4.356 4.176.684 1.273.666 2.907-.169 4.108-1.087 1.701-3.716 2.148-5.272.833-1.354-1.095-1.719-2.984-1.497-4.635.158-1.342.57-2.636.985-3.916-1.664-.857-3.304-1.773-5.122-2.248-1.03-.343-2.115-.51-3.162-.795-.352-.198-.478-.835-.054-1.032.422-.27.95.038 1.4.066 2.513.47 4.88 1.484 7.142 2.65.408.36.42-.365.606-.614.484-1.1 1.132-2.115 1.715-3.161-2.72-1.092-5.365-2.496-7.564-4.461-.383-.287-.238-.91.206-1.046.538-.123.905.448 1.31.697 1.503 1.186 3.16 2.135 4.898 2.937.624.302 1.262.578 1.92.809 1.083-1.476 2.286-2.9 3.75-4.012 1.373-1.002 3.237-1.581 4.879-.915 1.678.596 2.797 2.45 2.488 4.212-.064.433-.251.829-.39 1.166zm-1.057-.692c.62-1.145.08-2.707-1.065-3.315-1.193-.701-2.696-.386-3.802.332-1.416.929-2.484 2.295-3.535 3.606 1.538.46 3.131.743 4.734.87 1.226.097 2.68-.087 3.46-1.154.089-.125.14-.216.208-.339zm-8.107 13.261c.59-1.002.326-2.275-.322-3.18-.86-1.241-2.154-2.112-3.375-2.941-.14-.036-.134.26-.193.354-.458 1.631-1.067 3.373-.607 5.07.285 1.109 1.345 2.038 2.528 1.956.85-.218 1.63-.616 1.97-1.259z" class="filament"/><path id="base-2" d="M99.523 164.587c-3.907-.99-9.01-3.606-12.462-5.623-1.616-1.034-2.19-3.366-1.835-5.57.264-2.032 1.17-3.978 2.195-5.788 1.466-2.586 2.806-5.336 4.806-7.517 1.488-1.653 3.592-2.882 5.482-2.456 2.022.676 3.893 1.704 5.841 2.547 2.028.931 5.5 2.228 7.536 3.136-8.614 8.347-8.585 8.447-11.563 21.271z" class="base"/><path id="light-3" d="M60.471 61.784c-2.07 4.28 4.001 11.141 7.647 15.545 6.204 7.018 11.85 14.938 20.054 19.792 5.369 3.14 11.888 5.086 18.066 3.428 5.162-1.191 9.955-4.853 11.499-10.06 1.867-6.078-.605-12.734-4.83-17.227-3.634-4.1-8.693-6.557-13.73-8.475-8.61-2.874-14.13-4.322-23.022-5.828-4.613-.45-13.248-2.083-15.684 2.825z" class="light -blue"/><path id="filament-3" d="M101.171 75.854c-.675 1.454-.16 3.188.753 4.417 1.241 1.672 2.86 3.031 4.47 4.315.233.182-.105.464-.118.68-.506 1.238-1.031 2.503-1.76 3.629-1.921-.579-3.92-1.339-5.957-.965-1.429.22-2.723 1.219-3.179 2.608-.704 1.892.522 4.261 2.51 4.71 1.688.423 3.416-.423 4.601-1.594.977-.934 1.762-2.042 2.534-3.144 1.685.812 3.404 1.57 4.879 2.736.893.616 1.681 1.382 2.538 2.046.37.162.955-.12.857-.578-.04-.5-.603-.736-.896-1.078-1.888-1.724-4.123-3.003-6.416-4.106-.533-.11.038-.556.125-.855.587-1.048 1.008-2.177 1.492-3.272 2.51 1.515 5.223 2.781 8.116 3.354.46.133.87-.359.711-.795-.226-.503-.903-.453-1.346-.627-1.851-.485-3.607-1.237-5.293-2.141a18.754 18.754 0 01-1.801-1.046c.526-1.754.939-3.572.945-5.41-.027-1.7-.687-3.536-2.207-4.446-1.486-.982-3.64-.759-4.861.549-.308.311-.51.7-.697 1.013zm1.19.428c.54-1.185 2.113-1.695 3.288-1.146 1.278.53 1.931 1.92 2.024 3.235.11 1.69-.337 3.365-.751 4.995a22.847 22.847 0 01-3.545-3.257c-.816-.92-1.544-2.193-1.162-3.458a3.25 3.25 0 01.145-.37zm-5.708 14.456c.445-1.075 1.62-1.63 2.733-1.657 1.51-.06 2.984.448 4.38.924.113.09-.126.263-.166.367-1.027 1.348-2.051 2.882-3.682 3.537-1.057.44-2.438.153-3.085-.84-.338-.81-.49-1.674-.18-2.331z" class="filament"/><path id="base-3" d="M106.43 100.416c3.143 2.523 8.303 5.023 11.993 6.565 1.798.667 4.005-.278 5.55-1.888 1.465-1.435 2.474-3.33 3.3-5.238 1.184-2.727 2.572-5.453 3.11-8.363.424-2.183.139-4.603-1.34-5.856-1.757-1.207-3.704-2.082-5.55-3.13-1.964-1.059-5.09-3.05-7.04-4.13-1.48 11.903-1.577 11.941-10.023 22.04z" class="base"/><path id="light-4" d="M197.072 84.41c3.635-3.063.89-11.804-.643-17.312-2.802-8.938-4.726-18.472-10.237-26.25-3.621-5.057-8.78-9.492-15.097-10.498-5.2-1.018-11.07.37-14.602 4.496-4.184 4.788-4.642 11.872-2.615 17.699 1.644 5.226 5.261 9.531 9.078 13.337 6.69 6.136 11.139 9.709 18.643 14.71 4.029 2.294 11.247 7.306 15.473 3.818z" class="light -green"/><path id="filament-4" d="M165.649 54.964c1.21-1.052 1.446-2.845 1.114-4.34-.451-2.033-1.375-3.934-2.322-5.762-.137-.261.286-.382.386-.573.967-.925 1.962-1.865 3.088-2.595 1.517 1.31 3.032 2.82 5.044 3.31 1.395.382 2.983-.003 3.967-1.085 1.414-1.44 1.26-4.104-.37-5.325-1.37-1.074-3.293-1.007-4.852-.42-1.273.454-2.442 1.146-3.596 1.837-1.208-1.43-2.468-2.822-3.34-4.488-.563-.927-.97-1.947-1.482-2.904-.271-.299-.921-.278-1.018.18-.168.471.25.916.378 1.348 1.02 2.345 2.54 4.424 4.184 6.367.442.317-.262.492-.463.729-.964.718-1.808 1.576-2.697 2.379-1.673-2.406-3.635-4.67-6.042-6.372-.366-.31-.941-.028-.974.435.001.552.64.782.974 1.121 1.492 1.199 2.789 2.601 3.959 4.115.434.541.846 1.1 1.218 1.69-1.195 1.386-2.314 2.877-3.07 4.553-.668 1.563-.815 3.509.203 4.96.956 1.502 3.014 2.177 4.662 1.481.407-.159.751-.43 1.049-.64zm-.911-.875c-.978.861-2.621.685-3.47-.295-.95-1.006-.98-2.541-.529-3.78.589-1.588 1.68-2.935 2.723-4.253a22.847 22.847 0 011.908 4.418c.37 1.174.516 2.633-.349 3.632a3.248 3.248 0 01-.283.278zm11.107-10.872c-.845.8-2.144.827-3.171.399-1.403-.561-2.542-1.627-3.623-2.63-.066-.129.223-.19.302-.268 1.487-.812 3.048-1.795 4.804-1.727 1.145.029 2.289.854 2.474 2.025-.022.877-.235 1.727-.786 2.201z" class="filament"/><path id="base-4" d="M170.865 30.393c-1.84-3.585-5.533-7.972-8.272-10.885-1.37-1.343-3.77-1.38-5.839-.54-1.922.713-3.615 2.031-5.15 3.436-2.192 2.008-4.57 3.93-6.248 6.368-1.279 1.82-2.005 4.146-1.166 5.893 1.112 1.819 2.533 3.412 3.791 5.122 1.362 1.768 3.404 4.861 4.744 6.642 6.205-10.265 6.31-10.26 18.14-16.036z" class="base"/><path id="light-5" d="M294.618 19.227c-2.402-4.103-11.482-2.882-17.17-2.306-9.284 1.244-19.006 1.522-27.607 5.633-5.599 2.71-10.846 7.041-12.909 13.095-1.886 4.951-1.514 10.972 1.951 15.153 4.01 4.936 10.913 6.59 16.999 5.583 5.429-.734 10.286-3.568 14.685-6.683 7.182-5.55 11.458-9.329 17.662-15.875 2.944-3.58 9.109-9.843 6.389-14.6z" class="light -red"/><path id="filament-5" d="M260.264 45.195c-.832-1.371-2.558-1.909-4.087-1.835-2.08.1-4.11.687-6.074 1.31-.28.091-.327-.347-.498-.477-.747-1.11-1.505-2.25-2.034-3.484 1.55-1.273 3.294-2.51 4.118-4.41.614-1.309.504-2.94-.395-4.092-1.18-1.639-3.83-1.94-5.31-.54-1.291 1.168-1.552 3.074-1.239 4.71.232 1.332.715 2.6 1.2 3.856-1.613.947-3.2 1.953-4.989 2.528-1.01.4-2.084.627-3.113.969-.341.217-.431.86.003 1.033.436.247.946-.09 1.393-.143 2.484-.608 4.791-1.752 6.985-3.042.387-.382.44.341.64.58.543 1.071 1.246 2.05 1.886 3.061-2.655 1.241-5.219 2.79-7.305 4.873-.367.308-.187.923.263 1.033.544.093.88-.498 1.27-.768 1.435-1.268 3.038-2.307 4.728-3.204a18.754 18.754 0 011.871-.914c1.164 1.414 2.444 2.77 3.967 3.799 1.427.923 3.32 1.399 4.922.643 1.643-.688 2.658-2.601 2.252-4.344-.088-.428-.297-.813-.454-1.142zm-1.017.75c.683 1.108.23 2.698-.88 3.368-1.152.767-2.67.535-3.814-.12-1.465-.85-2.607-2.154-3.73-3.406a22.847 22.847 0 014.679-1.13c1.22-.165 2.681-.061 3.519.96.095.12.151.208.226.327zm-8.828-12.793c.645.969.45 2.254-.146 3.193-.79 1.288-2.034 2.229-3.207 3.124-.138.044-.148-.252-.212-.343-.548-1.603-1.252-3.308-.887-5.028.223-1.123 1.23-2.11 2.416-2.094.86.17 1.662.525 2.036 1.148z" class="filament"/><path id="base-5" d="M236.936 35.883c-3.846 1.205-8.797 4.099-12.132 6.304-1.556 1.122-2 3.482-1.524 5.662.376 2.016 1.388 3.908 2.513 5.658 1.606 2.502 3.097 5.173 5.214 7.24 1.577 1.569 3.746 2.68 5.61 2.149 1.981-.787 3.792-1.917 5.691-2.867 1.973-1.042 5.368-2.529 7.35-3.547-9.062-7.858-9.04-7.96-12.722-20.6z" class="base"/><path id="light-6" d="M157.377 106.683c-1.46 4.524 5.498 10.483 9.717 14.341 7.112 6.096 13.796 13.162 22.591 16.839 5.75 2.37 12.476 3.398 18.366.904 4.949-1.892 9.191-6.179 10.002-11.55 1.01-6.277-2.354-12.528-7.16-16.396-4.164-3.56-9.513-5.295-14.766-6.501-8.925-1.659-14.59-2.332-23.606-2.598-4.632.19-13.409-.237-15.144 4.96z" class="light -blue"/><path id="filament-6" d="M199.628 115.006c-.468 1.534.28 3.18 1.354 4.271 1.46 1.486 3.25 2.608 5.023 3.658.255.148-.04.474-.024.69-.33 1.296-.676 2.62-1.243 3.837-1.982-.308-4.066-.786-6.033-.135-1.385.415-2.528 1.583-2.788 3.022-.437 1.971 1.104 4.148 3.134 4.32 1.731.185 3.326-.891 4.338-2.214.839-1.06 1.463-2.266 2.076-3.464 1.782.572 3.589 1.086 5.21 2.037.97.487 1.855 1.137 2.796 1.677.389.11.929-.252.769-.691-.108-.49-.698-.645-1.036-.944-2.108-1.447-4.498-2.406-6.921-3.182-.543-.035-.039-.556.006-.864.437-1.12.698-2.295 1.027-3.447 2.694 1.155 5.556 2.035 8.5 2.203.474.068.813-.475.595-.885-.293-.467-.957-.324-1.42-.435-1.9-.226-3.743-.728-5.537-1.392-.655-.229-1.301-.486-1.929-.787.28-1.81.438-3.667.19-5.489-.26-1.679-1.167-3.408-2.798-4.099-1.608-.768-3.71-.25-4.74 1.214-.26.35-.408.763-.55 1.1zm1.237.26c.372-1.248 1.86-1.97 3.098-1.588 1.34.35 2.178 1.635 2.451 2.925.343 1.659.13 3.38-.055 5.05a22.847 22.847 0 01-3.96-2.736c-.935-.8-1.832-1.96-1.627-3.265.026-.15.054-.25.093-.386zm-3.66 15.105c.292-1.126 1.38-1.837 2.478-2.018 1.487-.268 3.017.033 4.466.311.125.074-.089.279-.114.387-.831 1.476-1.634 3.138-3.16 4.01-.986.583-2.393.489-3.17-.407-.447-.755-.716-1.589-.5-2.283z" class="filament"/><path id="base-6" d="M208.223 138.609c3.46 2.065 8.916 3.83 12.783 4.848 1.873.414 3.929-.827 5.238-2.635 1.253-1.623 1.99-3.638 2.546-5.643.796-2.864 1.795-5.755 1.926-8.712.12-2.22-.496-4.578-2.133-5.615-1.907-.953-3.956-1.551-5.93-2.335-2.091-.777-5.462-2.32-7.542-3.119.176 11.993.085 12.044-6.888 23.211z" class="base"/><path id="light-7" d="M283.817 141.232c-4.605-1.18-10.127 6.131-13.72 10.578-5.648 7.473-12.29 14.577-15.42 23.582-2.014 5.884-2.628 12.66.223 18.386 2.191 4.824 6.73 8.796 12.14 9.275 6.329.624 12.361-3.118 15.927-8.151 3.299-4.375 4.703-9.82 5.584-15.138 1.108-9.009 1.433-14.706 1.145-23.72-.473-4.611-.586-13.398-5.88-14.812z" class="light -green"/><path id="filament-7" d="M278.1 183.914c-1.56-.373-3.157.475-4.18 1.614-1.394 1.548-2.405 3.404-3.343 5.237-.132.264-.476-.011-.69.019-1.315-.25-2.658-.514-3.906-1.006.186-1.997.534-4.106-.236-6.029-.5-1.357-1.735-2.427-3.187-2.598-1.994-.315-4.073 1.357-4.12 3.393-.078 1.74 1.094 3.266 2.476 4.195 1.11.771 2.351 1.32 3.585 1.86-.462 1.812-.864 3.647-1.714 5.324-.427.998-1.02 1.922-1.502 2.894-.086.394.308.911.737.724.481-.137.6-.736.878-1.091 1.316-2.193 2.126-4.637 2.752-7.103.002-.544.553-.073.863-.047 1.144.367 2.333.556 3.503.813-.987 2.76-1.69 5.671-1.677 8.62-.04.478.524.782.92.54.448-.322.264-.976.347-1.444.108-1.911.497-3.781 1.049-5.613.189-.667.405-1.328.667-1.973 1.824.168 3.687.212 5.49-.146 1.66-.364 3.33-1.375 3.92-3.046.668-1.65.022-3.718-1.502-4.655-.366-.24-.786-.362-1.13-.482zm-.184 1.25c1.268.296 2.08 1.736 1.775 2.996-.266 1.358-1.499 2.274-2.77 2.626-1.634.443-3.364.337-5.044.254a22.847 22.847 0 012.489-4.12c.741-.982 1.843-1.949 3.159-1.825.152.017.254.039.39.07zm-15.301-2.726c1.142.223 1.918 1.264 2.166 2.35.358 1.468.152 3.013-.037 4.476-.066.13-.283-.071-.393-.09-1.524-.74-3.232-1.438-4.196-2.907-.642-.95-.635-2.36.212-3.19.726-.492 1.542-.812 2.248-.64z" class="filament"/><path id="base-7" d="M255.068 193.94c-1.85 3.581-3.276 9.135-4.055 13.057-.298 1.895 1.067 3.87 2.95 5.066 1.698 1.151 3.755 1.763 5.79 2.196 2.907.619 5.854 1.438 8.813 1.388 2.224-.017 4.54-.777 5.474-2.474.834-1.962 1.306-4.044 1.967-6.062.648-2.135 1.98-5.594 2.65-7.719-11.959.911-12.015.824-23.589-5.452z" class="base"/><path id="light-8" d="M388.248 234.722c2.902-3.766-1.637-11.725-4.305-16.781-4.637-8.14-8.542-17.046-15.58-23.477-4.612-4.172-10.596-7.41-16.982-7.051-5.297.11-10.738 2.713-13.314 7.494-3.071 5.568-2.014 12.588 1.204 17.85 2.717 4.758 7.166 8.197 11.704 11.106 7.84 4.574 12.947 7.12 21.343 10.415 4.423 1.385 12.541 4.75 15.93.444z" class="light -red"/><path id="filament-8" d="M351.287 212.622c.959-1.286.81-3.088.167-4.478-.872-1.89-2.178-3.552-3.493-5.138-.19-.226.2-.433.256-.64.749-1.11 1.521-2.24 2.466-3.193 1.76.959 3.562 2.112 5.632 2.163 1.444.077 2.915-.636 3.646-1.903 1.076-1.708.36-4.277-1.492-5.124-1.567-.759-3.432-.285-4.831.619-1.147.715-2.142 1.639-3.124 2.56-1.484-1.14-3.011-2.234-4.216-3.677-.748-.786-1.363-1.696-2.066-2.522-.328-.235-.96-.077-.956.39-.065.498.439.844.656 1.239 1.495 2.074 3.421 3.783 5.44 5.332.5.216-.151.536-.297.811-.79.906-1.433 1.925-2.13 2.898-2.147-1.996-4.544-3.791-7.258-4.944-.424-.224-.926.173-.86.632.119.54.792.629 1.19.89 1.713.853 3.278 1.949 4.743 3.179.539.437 1.06.896 1.55 1.392-.874 1.609-1.65 3.304-2.033 5.102-.321 1.669-.051 3.602 1.251 4.804 1.254 1.265 3.408 1.487 4.87.457.365-.242.643-.58.89-.849zm-1.076-.662c-.772 1.05-2.415 1.226-3.453.449-1.143-.781-1.498-2.275-1.32-3.581.238-1.677 1.02-3.225 1.758-4.735a22.847 22.847 0 012.803 3.912c.61 1.069 1.063 2.463.43 3.623a3.245 3.245 0 01-.218.332zm8.545-12.983c-.656.962-1.92 1.264-3.014 1.063-1.49-.25-2.83-1.05-4.099-1.8-.093-.112.178-.232.238-.326 1.28-1.109 2.597-2.402 4.328-2.708 1.125-.215 2.418.348 2.847 1.453.165.862.137 1.738-.3 2.318z" class="filament"/><path id="base-8" d="M351.166 187.503c-2.56-3.112-7.1-6.615-10.396-8.879-1.624-1.022-3.978-.547-5.82.712-1.727 1.105-3.102 2.753-4.302 4.452-1.716 2.428-3.633 4.812-4.754 7.55-.863 2.05-1.079 4.477.112 6.006 1.474 1.541 3.2 2.796 4.793 4.2 1.706 1.438 4.359 4.027 6.047 5.482 3.883-11.348 3.985-11.366 14.32-19.523z" class="base"/><path id="light-9" d="M308.68 116.203c-1.769 4.413 4.764 10.837 8.707 14.976 6.676 6.571 12.858 14.08 21.38 18.353 5.574 2.76 12.213 4.248 18.26 2.165 5.067-1.547 9.595-5.532 10.773-10.834 1.44-6.194-1.488-12.661-6.016-16.85-3.909-3.839-9.126-5.938-14.284-7.502-8.789-2.268-14.396-3.33-23.371-4.215-4.634-.13-13.36-1.158-15.45 3.907z" class="light -blue"/><path id="filament-9" d="M350.258 127.413c-.573 1.498.062 3.191 1.058 4.354 1.354 1.582 3.063 2.826 4.759 3.994.244.166-.074.471-.071.686-.42 1.272-.855 2.57-1.505 3.743-1.955-.443-4.002-1.063-6.009-.548-1.41.318-2.63 1.404-2.99 2.822-.57 1.937.817 4.214 2.83 4.525 1.715.304 3.38-.66 4.48-1.91.91-1 1.616-2.16 2.31-3.313 1.738.694 3.505 1.33 5.057 2.39.934.553 1.773 1.262 2.674 1.866.38.136.944-.187.815-.637-.074-.495-.652-.691-.968-1.012-2.004-1.59-4.322-2.71-6.687-3.652-.539-.072 0-.557.066-.86.513-1.087.855-2.242 1.261-3.369 2.609 1.337 5.404 2.412 8.33 2.782.468.101.843-.418.654-.841-.26-.487-.933-.39-1.386-.532-1.881-.356-3.685-.984-5.43-1.77a18.756 18.756 0 01-1.87-.917c.404-1.786.69-3.629.568-5.463-.145-1.693-.93-3.48-2.51-4.282-1.55-.876-3.684-.504-4.812.885-.285.332-.46.733-.624 1.059zm1.216.344c.457-1.22 1.99-1.837 3.2-1.371 1.313.44 2.061 1.781 2.245 3.087.227 1.678-.103 3.38-.403 5.034a22.847 22.847 0 01-3.762-3.002c-.878-.862-1.693-2.08-1.4-3.369a3.23 3.23 0 01.12-.379zm-4.69 14.818c.37-1.103 1.503-1.738 2.611-1.843 1.502-.165 3.008.24 4.434.617.12.083-.108.272-.14.379-.931 1.415-1.846 3.017-3.428 3.783-1.024.513-2.422.323-3.135-.624-.394-.784-.605-1.635-.342-2.312z" class="filament"/><path id="base-9" d="M357.21 151.55c3.31 2.3 8.632 4.435 12.419 5.717 1.84.541 3.976-.556 5.407-2.269 1.361-1.533 2.235-3.493 2.928-5.454.991-2.803 2.186-5.619 2.52-8.559.273-2.207-.18-4.602-1.742-5.749-1.837-1.082-3.84-1.82-5.755-2.737-2.033-.92-5.29-2.69-7.31-3.63-.648 11.976-.743 12.02-8.468 22.682z" class="base"/></g></svg>